<?xml version="1.0" standalone="no"?>
<!DOCTYPE svg PUBLIC "-//W3C//DTD SVG 20010904//EN"
 "http://www.w3.org/TR/2001/REC-SVG-20010904/DTD/svg10.dtd">
<svg version="1.0" xmlns="http://www.w3.org/2000/svg"
 width="512.000000pt" height="512.000000pt" viewBox="0 0 512.000000 512.000000"
 preserveAspectRatio="xMidYMid meet">
<metadata>
Created by potrace 1.16, written by Peter Selinger 2001-2019
</metadata>
<g transform="translate(0.000000,512.000000) scale(0.100000,-0.100000)"
fill="#000000" stroke="none">
<path d="M1653 4755 c-17 -7 -36 -22 -42 -34 -8 -13 -11 -210 -11 -620 l0
-601 -580 0 c-499 0 -585 -2 -610 -15 -37 -19 -50 -43 -50 -95 0 -31 6 -47 26
-65 l27 -25 593 0 594 0 0 -750 0 -750 -580 0 c-499 0 -585 -2 -610 -15 -37
-19 -50 -43 -50 -95 0 -31 6 -47 26 -65 l27 -25 593 0 594 0 0 -595 0 -596 25
-24 c18 -19 35 -25 70 -25 35 0 52 6 70 25 l25 24 0 596 0 595 755 0 755 0 0
-595 0 -596 25 -24 c34 -35 106 -35 140 0 l25 24 0 596 0 595 609 0 608 0 27
26 c28 29 36 87 15 126 -25 47 -39 48 -669 48 l-590 0 0 750 0 750 598 0 c663
0 632 -3 651 67 8 27 7 44 -4 69 -27 66 -11 64 -660 64 l-585 0 0 603 c0 666
3 635 -64 657 -41 13 -98 -6 -115 -38 -8 -14 -11 -210 -11 -621 l0 -601 -755
0 -755 0 0 601 c0 411 -3 607 -11 621 -9 17 -65 49 -86 48 -4 -1 -22 -7 -40
-15z m1647 -2205 l0 -750 -755 0 -755 0 0 750 0 750 755 0 755 0 0 -750z"/>
<path d="M2934 2850 c-48 -11 -92 -47 -116 -93 -17 -34 -22 -65 -26 -157 -7
-192 21 -270 113 -311 54 -25 137 -24 191 1 57 28 114 114 114 171 0 17 -7 19
-60 19 -45 0 -60 -4 -60 -14 0 -8 -12 -28 -26 -45 -34 -41 -89 -43 -124 -6
-21 22 -24 38 -28 115 -5 111 3 155 33 186 34 34 79 32 116 -5 16 -16 29 -37
29 -45 0 -13 12 -16 60 -16 68 0 69 2 45 71 -38 106 -142 158 -261 129z"/>
<path d="M1870 2795 l0 -55 75 0 75 0 0 -230 0 -230 60 0 60 0 0 230 0 230 75
0 75 0 0 55 0 55 -210 0 -210 0 0 -55z"/>
<path d="M2370 2573 c-58 -152 -106 -280 -108 -284 -2 -5 26 -9 61 -9 l65 0
14 43 15 42 100 3 100 3 13 -46 13 -45 64 0 c48 0 64 3 61 13 -3 6 -51 135
-108 285 l-104 272 -40 0 -41 0 -105 -277z"/>
<path d="M2390 4737 c-132 -47 -226 -130 -287 -254 -35 -70 -38 -84 -41 -179
-6 -155 30 -250 136 -358 192 -196 532 -196 724 0 106 108 142 203 136 358 -3
95 -6 109 -41 179 -61 124 -155 207 -287 254 -52 18 -86 23 -170 23 -84 0
-118 -5 -170 -23z m295 -202 c189 -83 236 -304 95 -445 -118 -118 -317 -120
-435 -4 -59 57 -85 118 -85 198 0 204 228 339 425 251z"/>
<path d="M3879 4641 c-31 -32 -38 -75 -18 -114 6 -12 61 -73 122 -134 l111
-113 -117 -118 c-112 -114 -117 -121 -117 -161 0 -60 41 -101 101 -101 40 0
47 5 161 117 l118 117 118 -116 c64 -63 128 -119 140 -123 68 -21 132 27 132
98 0 38 -7 47 -122 164 l-122 123 117 118 c114 116 117 120 117 163 0 54 -20
86 -63 97 -56 15 -86 -3 -204 -120 l-113 -112 -123 122 c-119 117 -125 122
-166 122 -34 0 -49 -6 -72 -29z"/>
<path d="M310 4550 l0 -60 85 0 85 0 0 -245 0 -245 60 0 60 0 0 245 0 245 85
0 85 0 0 60 0 60 -230 0 -230 0 0 -60z"/>
<path d="M820 4305 l0 -305 65 0 65 0 0 305 0 305 -65 0 -65 0 0 -305z"/>
<path d="M1170 4599 c-49 -20 -88 -59 -107 -106 -14 -38 -18 -76 -18 -183 0
-165 7 -200 48 -247 43 -48 99 -73 167 -72 71 1 113 16 155 58 29 28 75 121
75 151 0 6 -29 10 -65 10 -61 0 -65 -2 -71 -25 -8 -31 -58 -75 -85 -75 -36 0
-77 29 -88 61 -16 47 -14 222 3 264 32 76 134 73 166 -5 12 -29 15 -30 76 -30
35 0 64 2 64 5 0 2 -7 26 -16 52 -36 107 -100 153 -211 152 -37 0 -79 -5 -93
-10z"/>
<path d="M4080 3017 c-215 -73 -340 -242 -340 -457 0 -273 216 -480 500 -480
200 0 371 102 454 272 134 270 -13 584 -313 672 -82 24 -220 21 -301 -7z m273
-197 c251 -94 251 -426 0 -520 -197 -74 -413 62 -413 260 0 199 215 334 413
260z"/>
<path d="M2421 1304 c-138 -37 -256 -134 -319 -263 -37 -75 -37 -77 -37 -201
0 -115 2 -129 27 -184 59 -125 155 -217 278 -267 67 -27 229 -37 310 -20 142
31 270 131 336 267 l39 78 0 125 c0 125 0 127 -37 202 -64 131 -182 227 -323
264 -73 19 -202 18 -274 -1z m255 -205 c67 -25 136 -89 164 -152 13 -27 20
-65 20 -108 0 -109 -55 -194 -163 -251 -35 -19 -58 -23 -137 -23 -79 0 -102 4
-137 23 -108 57 -163 142 -163 251 0 82 23 135 83 194 83 83 216 110 333 66z"/>
<path d="M500 1202 c-24 -24 -30 -39 -30 -73 0 -41 5 -47 122 -166 l122 -123
-117 -118 c-116 -118 -117 -119 -117 -166 0 -65 31 -96 96 -96 47 0 48 1 166
117 l118 117 123 -122 c119 -117 125 -122 166 -122 60 0 101 41 101 100 0 40
-5 47 -122 166 l-122 124 117 119 c115 115 117 119 117 163 0 63 -35 98 -98
98 -44 0 -48 -2 -164 -117 l-118 -117 -119 118 c-111 110 -122 119 -164 123
-41 5 -49 2 -77 -25z"/>
<path d="M4135 1208 c-50 -17 -96 -58 -116 -102 -27 -60 -27 -302 0 -361 34
-74 102 -115 191 -115 89 0 157 41 191 115 27 58 27 301 0 360 -42 93 -162
139 -266 103z m139 -134 c25 -26 26 -30 26 -151 0 -118 -1 -125 -25 -148 -16
-17 -35 -25 -59 -25 -81 0 -96 29 -96 180 0 110 0 112 29 141 39 38 88 40 125
3z"/>
<path d="M3540 1155 l0 -55 80 0 80 0 0 -230 0 -230 55 0 55 0 0 230 0 230 80
0 80 0 0 55 0 55 -215 0 -215 0 0 -55z"/>
<path d="M4520 925 l0 -285 195 0 195 0 0 55 0 55 -135 0 -135 0 0 60 0 60
115 0 115 0 0 55 0 55 -115 0 -115 0 0 60 0 60 135 0 135 0 0 55 0 55 -195 0
-195 0 0 -285z"/>
</g>
</svg>
